<?xml version="1.0" encoding="UTF-8"?>
<!DOCTYPE svg PUBLIC "-//W3C//DTD SVG 1.1//EN" "http://www.w3.org/Graphics/SVG/1.1/DTD/svg11.dtd">
<svg xmlns="http://www.w3.org/2000/svg" version="1.1" width="1000px" height="1000px" style="shape-rendering:geometricPrecision; text-rendering:geometricPrecision; image-rendering:optimizeQuality; fill-rule:evenodd; clip-rule:evenodd" xmlns:xlink="http://www.w3.org/1999/xlink">
<g><path style="opacity:0.988" fill="#000000" d="M 900.5,268.5 C 898.767,269.008 898.434,269.841 899.5,271C 886.719,277.075 874.052,276.908 861.5,270.5C 856.888,267.221 852.888,263.221 849.5,258.5C 847.713,257.684 846.046,256.684 844.5,255.5C 834.226,245.557 824.226,235.224 814.5,224.5C 811.585,222.219 808.918,219.719 806.5,217C 805.5,216.667 804.5,216.333 803.5,216C 802.15,211.977 799.15,208.977 794.5,207C 794.833,206.667 795.167,206.333 795.5,206C 793.365,205.241 792.032,203.741 791.5,201.5C 783.49,194.156 775.49,186.822 767.5,179.5C 766.269,178.349 766.269,177.183 767.5,176C 763.371,174.371 760.371,171.537 758.5,167.5C 754.615,164.471 751.615,161.304 749.5,158C 747.365,157.241 746.032,155.741 745.5,153.5C 742.604,151.792 739.937,149.792 737.5,147.5C 732.841,141.342 727.674,135.676 722,130.5C 721.517,129.552 721.351,128.552 721.5,127.5C 719.394,127.321 717.728,126.321 716.5,124.5C 712.018,120.185 708.518,115.185 706,109.5C 705.216,101.043 705.716,92.7099 707.5,84.5C 708.833,84.5 710.167,84.5 711.5,84.5C 711.421,83.0695 711.754,81.7362 712.5,80.5C 729.89,60.7763 748.556,42.443 768.5,25.5C 771.901,23.5044 775.568,22.3377 779.5,22C 780.337,20.9887 780.67,19.8221 780.5,18.5C 786.5,18.5 792.5,18.5 798.5,18.5C 798.281,19.675 798.614,20.675 799.5,21.5C 805.903,22.3789 810.903,25.5455 814.5,31C 815.9,32.4381 817.567,33.2714 819.5,33.5C 821.167,37.8333 824.167,40.8333 828.5,42.5C 828.281,43.675 828.614,44.675 829.5,45.5C 846.34,62.1694 862.673,78.6694 878.5,95C 879.974,96.3161 881.641,97.3161 883.5,98C 883.167,98.3333 882.833,98.6667 882.5,99C 885.6,102.792 889.267,105.959 893.5,108.5C 897.188,111.893 899.855,115.893 901.5,120.5C 902.675,120.281 903.675,120.614 904.5,121.5C 906.984,123.959 908.984,126.626 910.5,129.5C 916.054,133.721 921.054,138.721 925.5,144.5C 929.69,147.861 933.69,151.361 937.5,155C 937.167,155.333 936.833,155.667 936.5,156C 939.197,158.04 941.863,160.04 944.5,162C 944.167,162.333 943.833,162.667 943.5,163C 948.643,167.944 953.643,173.111 958.5,178.5C 959.478,189.448 959.811,200.448 959.5,211.5C 958.448,211.351 957.448,211.517 956.5,212C 952.02,217.734 947.02,222.901 941.5,227.5C 940.614,228.325 940.281,229.325 940.5,230.5C 939.448,230.351 938.448,230.517 937.5,231C 936.514,233.328 934.514,235.328 931.5,237C 921.648,247.357 911.315,257.857 900.5,268.5 Z M 786.5,82.5 C 787.552,82.3505 788.552,82.5172 789.5,83C 826.141,119.976 862.475,157.309 898.5,195C 892.376,200.287 886.376,205.787 880.5,211.5C 862.768,195.601 845.935,178.934 830,161.5C 823.535,154.837 816.702,148.503 809.5,142.5C 802.5,135.664 796,128.33 790,120.5C 783.136,113.302 775.97,106.468 768.5,100C 774.725,94.3895 780.725,88.5561 786.5,82.5 Z"/></g>
<g><path style="opacity:0.996" fill="#000000" d="M 375.5,145.5 C 401.169,145.333 426.835,145.5 452.5,146C 452.167,146.333 451.833,146.667 451.5,147C 458.167,147.333 464.833,147.667 471.5,148C 470.167,148.667 470.167,149.333 471.5,150C 482.487,151.305 493.487,153.139 504.5,155.5C 521.484,160.135 538.151,165.302 554.5,171C 554.167,171.333 553.833,171.667 553.5,172C 561.258,175.457 568.592,178.124 575.5,180C 574.167,180.667 574.167,181.333 575.5,182C 584.919,185.701 593.252,190.034 600.5,195C 602.167,195.333 603.833,195.667 605.5,196C 606.209,197.875 606.209,200.042 605.5,202.5C 593.819,214.348 581.986,226.014 570,237.5C 567.184,240.132 565.017,243.132 563.5,246.5C 560.132,248.017 557.132,250.184 554.5,253C 553.167,253.667 553.167,254.333 554.5,255C 550.912,256.419 548.578,258.919 547.5,262.5C 544.132,264.017 541.132,266.184 538.5,269C 537.167,269.667 537.167,270.333 538.5,271C 534.912,272.419 532.578,274.919 531.5,278.5C 528.132,280.017 525.132,282.184 522.5,285C 512.987,295.013 503.32,304.846 493.5,314.5C 492.167,316.167 492.167,317.833 493.5,319.5C 498.379,323.53 502.379,327.696 505.5,332C 506.448,332.483 507.448,332.649 508.5,332.5C 508.281,333.675 508.614,334.675 509.5,335.5C 514.167,338.833 518.167,342.833 521.5,347.5C 522.325,348.386 523.325,348.719 524.5,348.5C 524.281,349.675 524.614,350.675 525.5,351.5C 530.167,354.833 534.167,358.833 537.5,363.5C 538.325,364.386 539.325,364.719 540.5,364.5C 540.281,365.675 540.614,366.675 541.5,367.5C 546.167,370.833 550.167,374.833 553.5,379.5C 554.325,380.386 555.325,380.719 556.5,380.5C 556.281,381.675 556.614,382.675 557.5,383.5C 562.167,386.833 566.167,390.833 569.5,395.5C 570.325,396.386 571.325,396.719 572.5,396.5C 572.281,397.675 572.614,398.675 573.5,399.5C 578.167,402.833 582.167,406.833 585.5,411.5C 586.325,412.386 587.325,412.719 588.5,412.5C 589.578,416.081 591.912,418.581 595.5,420C 595.167,420.333 594.833,420.667 594.5,421C 595.448,421.483 596.448,421.649 597.5,421.5C 598.5,425.167 600.833,427.5 604.5,428.5C 605.578,432.081 607.912,434.581 611.5,436C 611.167,436.333 610.833,436.667 610.5,437C 611.448,437.483 612.448,437.649 613.5,437.5C 613.281,438.675 613.614,439.675 614.5,440.5C 619.379,444.53 623.379,448.696 626.5,453C 627.448,453.483 628.448,453.649 629.5,453.5C 629.281,454.675 629.614,455.675 630.5,456.5C 635.167,459.833 639.167,463.833 642.5,468.5C 643.325,469.386 644.325,469.719 645.5,469.5C 645.281,470.675 645.614,471.675 646.5,472.5C 651.167,475.833 655.167,479.833 658.5,484.5C 663.785,485.899 667.118,483.899 668.5,478.5C 672.833,476.833 675.833,473.833 677.5,469.5C 681.167,468.5 683.5,466.167 684.5,462.5C 688.833,460.833 691.833,457.833 693.5,453.5C 697.23,451.613 700.564,449.113 703.5,446C 703.167,445.667 702.833,445.333 702.5,445C 706.088,443.581 708.422,441.081 709.5,437.5C 712.868,435.983 715.868,433.816 718.5,431C 719.833,430.333 719.833,429.667 718.5,429C 722.088,427.581 724.422,425.081 725.5,421.5C 728.868,419.983 731.868,417.816 734.5,415C 735.833,414.333 735.833,413.667 734.5,413C 738.088,411.581 740.422,409.081 741.5,405.5C 744.868,403.983 747.868,401.816 750.5,399C 751.833,398.333 751.833,397.667 750.5,397C 754.088,395.581 756.422,393.081 757.5,389.5C 760.5,388.167 763.5,386.833 766.5,385.5C 766.44,389.621 767.44,393.454 769.5,397C 768.396,398.131 768.729,398.965 770.5,399.5C 772.887,407.495 775.387,415.495 778,423.5C 778.72,425.112 778.554,426.612 777.5,428C 778.126,428.75 778.626,429.584 779,430.5C 779.333,430.167 779.667,429.833 780,429.5C 781.64,441.297 783.64,452.964 786,464.5C 786.333,464.167 786.667,463.833 787,463.5C 788.537,477.796 789.37,492.129 789.5,506.5C 788.448,506.351 787.448,506.517 786.5,507C 787.423,509.041 787.756,511.208 787.5,513.5C 786.5,513.5 785.5,513.5 784.5,513.5C 783.167,517.833 781.833,522.167 780.5,526.5C 779.5,526.5 778.5,526.5 777.5,526.5C 776.167,529.833 774.833,533.167 773.5,536.5C 770.132,538.017 767.132,540.184 764.5,543C 763.167,543.667 763.167,544.333 764.5,545C 760.564,546.795 756.564,548.295 752.5,549.5C 752.5,550.5 752.5,551.5 752.5,552.5C 750.801,552.34 749.134,552.506 747.5,553C 747.833,553.333 748.167,553.667 748.5,554C 744.52,555.209 740.52,556.375 736.5,557.5C 522.167,558.833 307.833,558.833 93.5,557.5C 89.4801,556.375 85.4801,555.209 81.5,554C 81.8333,553.667 82.1667,553.333 82.5,553C 80.8659,552.506 79.1992,552.34 77.5,552.5C 77.5,551.5 77.5,550.5 77.5,549.5C 73.436,548.295 69.436,546.795 65.5,545C 65.8333,544.667 66.1667,544.333 66.5,544C 60.057,539.411 55.3903,533.578 52.5,526.5C 51.5,526.5 50.5,526.5 49.5,526.5C 48.1667,522.167 46.8333,517.833 45.5,513.5C 44.5,513.5 43.5,513.5 42.5,513.5C 42.2436,511.208 42.5769,509.041 43.5,507C 42.552,506.517 41.552,506.351 40.5,506.5C 40.3334,492.163 40.5001,477.829 41,463.5C 41.3333,463.833 41.6667,464.167 42,464.5C 44.3627,452.911 46.3627,441.244 48,429.5C 48.9009,426.024 50.2342,422.691 52,419.5C 54.3108,410.501 56.4774,401.501 58.5,392.5C 59.5,392.5 60.5,392.5 61.5,392.5C 62.3083,386.301 63.9749,380.301 66.5,374.5C 71.7141,363.886 76.8808,353.22 82,342.5C 86.6536,334.688 91.487,327.021 96.5,319.5C 97.4519,317.955 97.7852,316.288 97.5,314.5C 98.675,314.719 99.675,314.386 100.5,313.5C 102.406,309.258 104.739,305.258 107.5,301.5C 114.848,293.148 121.848,284.482 128.5,275.5C 133.188,271.172 137.188,266.839 140.5,262.5C 141.386,261.675 141.719,260.675 141.5,259.5C 145.167,258.5 147.5,256.167 148.5,252.5C 149.552,252.649 150.552,252.483 151.5,252C 199.233,204.753 256.566,172.753 323.5,156C 323.167,155.667 322.833,155.333 322.5,155C 333.91,153.197 345.244,151.53 356.5,150C 357.833,149.333 357.833,148.667 356.5,148C 363.246,148.131 369.579,147.298 375.5,145.5 Z M 409.5,196.5 C 413.913,196.853 418.246,197.686 422.5,199C 447.869,198.951 472.869,201.951 497.5,208C 504.716,210.639 512.05,212.972 519.5,215C 498.333,236.167 477.167,257.333 456,278.5C 453.578,282.344 450.911,286.01 448,289.5C 445.198,298.507 443.032,307.674 441.5,317C 443.094,325.544 444.927,334.044 447,342.5C 450,346.833 453,351.167 456,355.5C 507.167,405.333 557.667,455.833 607.5,507C 440.5,507.667 273.5,507.667 106.5,507C 98.1239,504.092 93.1239,498.259 91.5,489.5C 93.8946,469.244 97.7279,449.244 103,429.5C 107.209,417.002 111.876,404.668 117,392.5C 125.59,374.698 134.923,357.365 145,340.5C 150.736,334.028 155.736,327.028 160,319.5C 170.491,307.01 181.657,295.177 193.5,284C 240.21,241.312 294.876,213.978 357.5,202C 372.083,200.05 386.749,199.05 401.5,199C 404.379,198.454 407.046,197.621 409.5,196.5 Z"/></g>
<g><path style="opacity:0.987" fill="#000000" d="M 689.5,145.5 C 692.247,145.187 694.914,145.52 697.5,146.5C 700.27,150.605 703.937,153.605 708.5,155.5C 710.879,159.962 713.879,162.962 717.5,164.5C 718.246,165.736 718.579,167.07 718.5,168.5C 729.712,176.544 739.546,186.211 748,197.5C 753.868,202.701 759.035,207.867 763.5,213C 771.884,220.367 779.217,228.034 785.5,236C 786.5,236.333 787.5,236.667 788.5,237C 794.41,244.067 800.41,250.234 806.5,255.5C 807.429,256.689 807.762,258.022 807.5,259.5C 811.167,260.342 814.167,263.009 816.5,267.5C 817.325,268.386 818.325,268.719 819.5,268.5C 819.281,269.675 819.614,270.675 820.5,271.5C 824.798,274.63 828.632,278.297 832,282.5C 832.498,285.482 832.665,288.482 832.5,291.5C 831.448,291.351 830.448,291.517 829.5,292C 778.294,345.025 724.961,397.192 669.5,448.5C 661.051,454.664 651.717,456.998 641.5,455.5C 635.84,452.949 630.673,449.616 626,445.5C 625.517,444.552 625.351,443.552 625.5,442.5C 624.325,442.719 623.325,442.386 622.5,441.5C 615.469,435.139 609.136,428.972 603.5,423C 599.984,419.115 596.151,415.615 592,412.5C 587.064,405.729 581.231,399.729 574.5,394.5C 567.356,385.211 559.189,376.878 550,369.5C 548.562,368.1 547.729,366.433 547.5,364.5C 546.325,364.719 545.325,364.386 544.5,363.5C 539.426,357.631 534.592,352.297 530,347.5C 522.824,338.121 520.491,327.455 523,315.5C 527.024,310.755 530.524,305.755 533.5,300.5C 534.675,300.719 535.675,300.386 536.5,299.5C 541.5,294.167 546.5,288.833 551.5,283.5C 552.325,282.614 553.325,282.281 554.5,282.5C 554.351,281.448 554.517,280.448 555,279.5C 590.568,243.324 626.402,207.991 662.5,173.5C 663.386,172.675 663.719,171.675 663.5,170.5C 664.675,170.719 665.675,170.386 666.5,169.5C 672.331,163.171 678.664,157.338 685.5,152C 687.482,150.195 688.816,148.028 689.5,145.5 Z M 693.5,219.5 C 714.842,242.334 736.842,264.501 759.5,286C 722.642,321.192 686.142,356.692 650,392.5C 628.624,370.625 607.457,348.625 586.5,326.5C 619.019,291.481 653.019,257.981 688.5,226C 689.999,223.672 691.666,221.505 693.5,219.5 Z"/></g>
<g><path style="opacity:0.004" fill="#000000" d="M 900.5,268.5 C 901.833,269.167 901.833,269.167 900.5,268.5 Z"/></g>
<g><path style="opacity:0.129" fill="#000000" d="M 334.5,560.5 C 336.527,560.338 338.527,560.505 340.5,561C 341.38,562.356 341.714,563.856 341.5,565.5C 337.831,566.303 335.164,565.136 333.5,562C 334.056,561.617 334.389,561.117 334.5,560.5 Z"/></g>
<g><path style="opacity:0.012" fill="#000000" d="M 502.5,560.5 C 505.187,560.336 507.854,560.503 510.5,561C 507.892,564.976 504.225,566.476 499.5,565.5C 499.31,563.041 500.31,561.374 502.5,560.5 Z"/></g>
<g><path style="opacity:0.991" fill="#000000" d="M 493.5,567.5 C 578.157,568.306 662.824,568.806 747.5,569C 780.286,580.722 793.953,603.889 788.5,638.5C 780.337,664.549 762.671,678.383 735.5,680C 521.167,680.667 306.833,680.667 92.5,680C 88.1667,679.667 83.8333,679.333 79.5,679C 75.5217,677.616 71.5217,676.116 67.5,674.5C 63.556,671.204 59.2226,668.537 54.5,666.5C 51.569,661.5 48.2357,656.666 44.5,652C 44.8333,651.667 45.1667,651.333 45.5,651C 44.552,650.517 43.552,650.351 42.5,650.5C 41.9819,647.113 41.1486,643.779 40,640.5C 39.3333,629.167 39.3333,617.833 40,606.5C 41.383,603.632 42.2163,600.632 42.5,597.5C 43.5,597.5 44.5,597.5 45.5,597.5C 47.4108,591.744 50.7441,586.911 55.5,583C 55.1667,582.667 54.8333,582.333 54.5,582C 57.5155,580.331 60.5155,578.664 63.5,577C 64.8333,576.333 64.8333,575.667 63.5,575C 69.3271,573.137 74.9938,571.137 80.5,569C 218.334,568.833 356.001,568.333 493.5,567.5 Z M 95.5,619.5 C 307.834,619.333 520.167,619.5 732.5,620C 738.491,622.246 738.824,624.912 733.5,628C 520.5,628.667 307.5,628.667 94.5,628C 89.4128,624.826 89.7461,621.993 95.5,619.5 Z"/></g>
<g><path style="opacity:0.983" fill="#000000" d="M 103.5,684.5 C 311.834,684.167 520.168,684.5 728.5,685.5C 741.362,690.993 748.029,700.16 748.5,713C 747.081,729.845 738.081,739.845 721.5,743C 517.833,743.667 314.167,743.667 110.5,743C 105.9,741.681 101.233,740.348 96.5,739C 96.8333,738.667 97.1667,738.333 97.5,738C 94.3695,736.039 91.3695,733.873 88.5,731.5C 87.5077,728.674 86.0077,725.674 84,722.5C 80.9618,710.481 83.7951,700.314 92.5,692C 96.2966,689.387 99.9633,686.887 103.5,684.5 Z"/></g>
<g><path style="opacity:0.998" fill="#000000" d="M 103.5,746.5 C 247.167,746.333 390.834,746.5 534.5,747C 538.473,748.986 542.473,750.986 546.5,753C 546.167,753.333 545.833,753.667 545.5,754C 548.719,757.056 551.386,760.556 553.5,764.5C 558.261,785.593 550.261,798.926 529.5,804.5C 389.168,805.667 248.835,805.833 108.5,805C 108.833,804.667 109.167,804.333 109.5,804C 89.2561,800.229 80.7561,787.395 84,765.5C 86.1923,761.126 89.0256,757.126 92.5,753.5C 96.2192,750.905 99.8859,748.571 103.5,746.5 Z"/></g>
<g><path style="opacity:0.99" fill="#000000" d="M 665.5,746.5 C 686.169,746.333 706.836,746.5 727.5,747C 731.465,748.939 735.465,750.939 739.5,753C 739.167,753.333 738.833,753.667 738.5,754C 747.399,761.108 750.565,770.941 748,783.5C 747.667,783.167 747.333,782.833 747,782.5C 746.691,783.766 746.191,784.933 745.5,786C 746.451,786.718 746.617,787.551 746,788.5C 743.626,790.378 741.792,792.712 740.5,795.5C 734.942,799.667 728.942,802.667 722.5,804.5C 705.167,805.833 687.833,805.833 670.5,804.5C 658.561,801.753 650.727,795.42 647,785.5C 646.667,785.833 646.333,786.167 646,786.5C 644.925,777.661 645.592,768.995 648,760.5C 650.51,758.644 652.676,756.477 654.5,754C 654.167,753.667 653.833,753.333 653.5,753C 657.749,751.046 661.749,748.88 665.5,746.5 Z"/></g>
<g><path style="opacity:0.983" fill="#000000" d="M 103.5,808.5 C 247.001,807.167 390.667,807.167 534.5,808.5C 538.365,810.853 542.365,813.02 546.5,815C 546.167,815.333 545.833,815.667 545.5,816C 546.5,816.333 547.5,816.667 548.5,817C 548.167,817.333 547.833,817.667 547.5,818C 550.072,820.409 552.072,823.242 553.5,826.5C 554.497,833.803 554.831,841.137 554.5,848.5C 553.5,848.5 552.5,848.5 551.5,848.5C 551.785,850.288 551.452,851.955 550.5,853.5C 544.91,860.128 537.91,864.461 529.5,866.5C 389.167,867.833 248.833,867.833 108.5,866.5C 108.291,865.914 107.957,865.414 107.5,865C 102.518,864.335 97.8513,862.835 93.5,860.5C 92.7204,857.899 91.0537,855.899 88.5,854.5C 83.692,846.164 82.192,837.164 84,827.5C 86.1131,823.084 88.9464,819.084 92.5,815.5C 96.6125,812.683 100.279,810.349 103.5,808.5 Z"/></g>
<g><path style="opacity:0.981" fill="#000000" d="M 665.5,807.5 C 686.177,807.167 706.844,807.5 727.5,808.5C 732.867,811.241 737.533,813.908 741.5,816.5C 743.477,820.454 745.477,824.454 747.5,828.5C 748.833,833.833 748.833,839.167 747.5,844.5C 746.713,845.242 746.047,846.075 745.5,847C 746.517,848.049 746.684,849.216 746,850.5C 743.728,853.86 740.895,856.694 737.5,859C 737.833,859.333 738.167,859.667 738.5,860C 733.431,862.925 728.097,865.092 722.5,866.5C 705.167,867.833 687.833,867.833 670.5,866.5C 666.476,865.043 662.476,863.376 658.5,861.5C 654.868,858.705 651.368,855.705 648,852.5C 647.383,851.551 647.549,850.718 648.5,850C 647.975,849.308 647.308,848.808 646.5,848.5C 645.146,839.411 645.479,830.411 647.5,821.5C 650.367,820.313 652.7,818.313 654.5,815.5C 657.548,812.978 660.882,810.978 664.5,809.5C 665.298,809.043 665.631,808.376 665.5,807.5 Z"/></g>
<g><path style="opacity:0.991" fill="#000000" d="M 79.5,869.5 C 302.501,869.167 525.501,869.5 748.5,870.5C 761.983,873.96 772.983,881.96 781.5,894.5C 783.914,899.877 786.247,905.21 788.5,910.5C 789.833,920.5 789.833,930.5 788.5,940.5C 785.702,948.565 781.535,955.898 776,962.5C 775.517,963.448 775.351,964.448 775.5,965.5C 771.212,967.65 767.212,970.317 763.5,973.5C 759.186,975.653 754.853,977.653 750.5,979.5C 526.167,980.833 301.833,980.833 77.5,979.5C 71.8688,977.02 66.2022,974.52 60.5,972C 61.8333,971.333 61.8333,970.667 60.5,970C 57.92,968.232 55.2533,966.732 52.5,965.5C 49.9395,960.595 46.9395,955.928 43.5,951.5C 42.2724,948.515 41.1057,945.515 40,942.5C 39.2165,930.311 39.3832,918.144 40.5,906C 41.6296,903.593 42.463,901.093 43,898.5C 43.9138,899.654 44.7471,899.487 45.5,898C 45.1667,897.667 44.8333,897.333 44.5,897C 53.6276,883.261 65.2943,874.095 79.5,869.5 Z M 94.5,920.5 C 307.5,920.333 520.5,920.5 733.5,921C 738.003,923.289 738.336,925.956 734.5,929C 733.167,929.333 731.833,929.667 730.5,930C 519.5,930.667 308.5,930.667 97.5,930C 89.7963,928.482 88.7963,925.316 94.5,920.5 Z"/></g>
</svg>
