<?xml version="1.0"?>
<svg xmlns="http://www.w3.org/2000/svg" xmlns:xlink="http://www.w3.org/1999/xlink" id="visual" viewBox="0 0 900 600" width="900" height="600" version="1.1">
  <path fill="#00cacc" d="M0 169L21.5 169C43 169 86 169 128.8 162.5C171.7 156 214.3 143 257.2 142.2C300 141.3 343 152.7 385.8 159.5C428.7 166.3 471.3 168.7 514.2 169C557 169.3 600 167.7 642.8 167C685.7 166.3 728.3 166.7 771.2 162.3C814 158 857 149 878.5 144.5L900 140L900 0L878.5 0C857 0 814 0 771.2 0C728.3 0 685.7 0 642.8 0C600 0 557 0 514.2 0C471.3 0 428.7 0 385.8 0C343 0 300 0 257.2 0C214.3 0 171.7 0 128.8 0C86 0 43 0 21.5 0L0 0Z"/>
  <path fill="#00A8CC" d="M0 117L21.5 122.7C43 128.3 86 139.7 128.8 139.3C171.7 139 214.3 127 257.2 127.7C300 128.3 343 141.7 385.8 142.8C428.7 144 471.3 133 514.2 131.5C557 130 600 138 642.8 140.3C685.7 142.7 728.3 139.3 771.2 135.3C814 131.3 857 126.7 878.5 124.3L900 122L900 0L878.5 0C857 0 814 0 771.2 0C728.3 0 685.7 0 642.8 0C600 0 557 0 514.2 0C471.3 0 428.7 0 385.8 0C343 0 300 0 257.2 0C214.3 0 171.7 0 128.8 0C86 0 43 0 21.5 0L0 0Z"/>
  <path fill="#0C7B93" d="M0 86L21.5 91.3C43 96.7 86 107.3 128.8 106.7C171.7 106 214.3 94 257.2 87.3C300 80.7 343 79.3 385.8 85.8C428.7 92.3 471.3 106.7 514.2 112C557 117.3 600 113.7 642.8 106.8C685.7 100 728.3 90 771.2 86.8C814 83.7 857 87.3 878.5 89.2L900 91L900 0L878.5 0C857 0 814 0 771.2 0C728.3 0 685.7 0 642.8 0C600 0 557 0 514.2 0C471.3 0 428.7 0 385.8 0C343 0 300 0 257.2 0C214.3 0 171.7 0 128.8 0C86 0 43 0 21.5 0L0 0Z"/>
  <path fill="#27496D" d="M0 65L21.5 66C43 67 86 69 128.8 67.3C171.7 65.7 214.3 60.3 257.2 62.5C300 64.7 343 74.3 385.8 77C428.7 79.7 471.3 75.3 514.2 73.3C557 71.3 600 71.7 642.8 68.7C685.7 65.7 728.3 59.3 771.2 60C814 60.7 857 68.3 878.5 72.2L900 76L900 0L878.5 0C857 0 814 0 771.2 0C728.3 0 685.7 0 642.8 0C600 0 557 0 514.2 0C471.3 0 428.7 0 385.8 0C343 0 300 0 257.2 0C214.3 0 171.7 0 128.8 0C86 0 43 0 21.5 0L0 0Z"/>
  <path fill="#142850" d="M0 30L21.5 34C43 38 86 46 128.8 46.8C171.7 47.7 214.3 41.3 257.2 40.5C300 39.7 343 44.3 385.8 42.7C428.7 41 471.3 33 514.2 32C557 31 600 37 642.8 40.5C685.7 44 728.3 45 771.2 41.7C814 38.3 857 30.7 878.5 26.8L900 23L900 0L878.5 0C857 0 814 0 771.2 0C728.3 0 685.7 0 642.8 0C600 0 557 0 514.2 0C471.3 0 428.7 0 385.8 0C343 0 300 0 257.2 0C214.3 0 171.7 0 128.8 0C86 0 43 0 21.5 0L0 0Z"/>
</svg>