<?xml version="1.0"?>
<svg xmlns="http://www.w3.org/2000/svg" xmlns:xlink="http://www.w3.org/1999/xlink" id="visual" viewBox="0 0 900 600" width="900" height="600" version="1.1">
  <path d="M0 398L21.5 400.8C43 403.7 86 409.3 128.8 402.5C171.7 395.7 214.3 376.3 257.2 379C300 381.7 343 406.3 385.8 419.8C428.7 433.3 471.3 435.7 514.2 426.7C557 417.7 600 397.3 642.8 397.8C685.7 398.3 728.3 419.7 771.2 417.7C814 415.7 857 390.3 878.5 377.7L900 365L900 601L878.5 601C857 601 814 601 771.2 601C728.3 601 685.7 601 642.8 601C600 601 557 601 514.2 601C471.3 601 428.7 601 385.8 601C343 601 300 601 257.2 601C214.3 601 171.7 601 128.8 601C86 601 43 601 21.5 601L0 601Z" fill="#00cacc"/>
	<path d="M0 463L21.5 456.8C43 450.7 86 438.3 128.8 430.3C171.7 422.3 214.3 418.7 257.2 416C300 413.3 343 411.7 385.8 411.5C428.7 411.3 471.3 412.7 514.2 412.8C557 413 600 412 642.8 418.7C685.7 425.3 728.3 439.7 771.2 449.8C814 460 857 466 878.5 469L900 472L900 601L878.5 601C857 601 814 601 771.2 601C728.3 601 685.7 601 642.8 601C600 601 557 601 514.2 601C471.3 601 428.7 601 385.8 601C343 601 300 601 257.2 601C214.3 601 171.7 601 128.8 601C86 601 43 601 21.5 601L0 601Z" fill="#009fbc"/>
	<path d="M0 482L21.5 486.2C43 490.3 86 498.7 128.8 495.3C171.7 492 214.3 477 257.2 466.3C300 455.7 343 449.3 385.8 452.3C428.7 455.3 471.3 467.7 514.2 478.2C557 488.7 600 497.3 642.8 501.5C685.7 505.7 728.3 505.3 771.2 505.7C814 506 857 507 878.5 507.5L900 508L900 601L878.5 601C857 601 814 601 771.2 601C728.3 601 685.7 601 642.8 601C600 601 557 601 514.2 601C471.3 601 428.7 601 385.8 601C343 601 300 601 257.2 601C214.3 601 171.7 601 128.8 601C86 601 43 601 21.5 601L0 601Z" fill="#00759e"/>
	<path d="M0 502L21.5 503.5C43 505 86 508 128.8 514.7C171.7 521.3 214.3 531.7 257.2 530C300 528.3 343 514.7 385.8 507.2C428.7 499.7 471.3 498.3 514.2 503.7C557 509 600 521 642.8 526.3C685.7 531.7 728.3 530.3 771.2 526.5C814 522.7 857 516.3 878.5 513.2L900 510L900 601L878.5 601C857 601 814 601 771.2 601C728.3 601 685.7 601 642.8 601C600 601 557 601 514.2 601C471.3 601 428.7 601 385.8 601C343 601 300 601 257.2 601C214.3 601 171.7 601 128.8 601C86 601 43 601 21.5 601L0 601Z" fill="#0f4d79"/>
	<path d="M0 543L21.5 545.2C43 547.3 86 551.7 128.8 550.2C171.7 548.7 214.3 541.3 257.2 541.5C300 541.7 343 549.3 385.8 550.5C428.7 551.7 471.3 546.3 514.2 543C557 539.7 600 538.3 642.8 543.2C685.7 548 728.3 559 771.2 557.5C814 556 857 542 878.5 535L900 528L900 601L878.5 601C857 601 814 601 771.2 601C728.3 601 685.7 601 642.8 601C600 601 557 601 514.2 601C471.3 601 428.7 601 385.8 601C343 601 300 601 257.2 601C214.3 601 171.7 601 128.8 601C86 601 43 601 21.5 601L0 601Z" fill="#142850"/>
</svg>
