<?xml version="1.0"?>
<svg xmlns="http://www.w3.org/2000/svg" xmlns:xlink="http://www.w3.org/1999/xlink" id="visual" viewBox="0 0 900 235" width="900" height="235" version="1.1">
	<g>
		<path id="svg_1" fill="#FF7844" d="m0,33l21.5,2.8c21.5,2.9 64.5,8.5 107.3,1.7c42.9,-6.8 85.5,-26.2 128.4,-23.5c42.8,2.7 85.8,27.3 128.6,40.8c42.9,13.5 85.5,15.9 128.4,6.9c42.8,-9 85.8,-29.4 128.6,-28.9c42.9,0.5 85.5,21.9 128.4,19.9c42.8,-2 85.8,-27.4 107.3,-40l21.5,-12.7l0,236l-21.5,0c-21.5,0 -64.5,0 -107.3,0c-42.9,0 -85.5,0 -128.4,0c-42.8,0 -85.8,0 -128.6,0c-42.9,0 -85.5,0 -128.4,0c-42.8,0 -85.8,0 -128.6,0c-42.9,0 -85.5,0 -128.4,0c-42.8,0 -85.8,0 -107.3,0l-21.5,0l0,-203z"/>
		<path id="svg_2" fill="#A64942" d="m0,98l21.5,-6.2c21.5,-6.1 64.5,-18.5 107.3,-26.5c42.9,-8 85.5,-11.6 128.4,-14.3c42.8,-2.7 85.8,-4.3 128.6,-4.5c42.9,-0.2 85.5,1.2 128.4,1.3c42.8,0.2 85.8,-0.8 128.6,5.9c42.9,6.6 85.5,21 128.4,31.1c42.8,10.2 85.8,16.2 107.3,19.2l21.5,3l0,129l-21.5,0c-21.5,0 -64.5,0 -107.3,0c-42.9,0 -85.5,0 -128.4,0c-42.8,0 -85.8,0 -128.6,0c-42.9,0 -85.5,0 -128.4,0c-42.8,0 -85.8,0 -128.6,0c-42.9,0 -85.5,0 -128.4,0c-42.8,0 -85.8,0 -107.3,0l-21.5,0l0,-138z"/>
		<path id="svg_3" fill="#873c36" d="m0,117l21.5,4.2c21.5,4.1 64.5,12.5 107.3,9.1c42.9,-3.3 85.5,-18.3 128.4,-29c42.8,-10.6 85.8,-17 128.6,-14c42.9,3 85.5,15.4 128.4,25.9c42.8,10.5 85.8,19.1 128.6,23.3c42.9,4.2 85.5,3.8 128.4,4.2c42.8,0.3 85.8,1.3 107.3,1.8l21.5,0.5l0,93l-21.5,0c-21.5,0 -64.5,0 -107.3,0c-42.9,0 -85.5,0 -128.4,0c-42.8,0 -85.8,0 -128.6,0c-42.9,0 -85.5,0 -128.4,0c-42.8,0 -85.8,0 -128.6,0c-42.9,0 -85.5,0 -128.4,0c-42.8,0 -85.8,0 -107.3,0l-21.5,0l0,-119z"/>
		<path id="svg_4" fill="#53354A" d="m0,137l21.5,1.5c21.5,1.5 64.5,4.5 107.3,11.2c42.9,6.6 85.5,17 128.4,15.3c42.8,-1.7 85.8,-15.3 128.6,-22.8c42.9,-7.5 85.5,-8.9 128.4,-3.5c42.8,5.3 85.8,17.3 128.6,22.6c42.9,5.4 85.5,4 128.4,0.2c42.8,-3.8 85.8,-10.2 107.3,-13.3l21.5,-3.2l0,91l-21.5,0c-21.5,0 -64.5,0 -107.3,0c-42.9,0 -85.5,0 -128.4,0c-42.8,0 -85.8,0 -128.6,0c-42.9,0 -85.5,0 -128.4,0c-42.8,0 -85.8,0 -128.6,0c-42.9,0 -85.5,0 -128.4,0c-42.8,0 -85.8,0 -107.3,0l-21.5,0l0,-99z"/>
		<path id="svg_5" fill="#1B1F3A" d="m0,178l21.5,2.2c21.5,2.1 64.5,6.5 107.3,5c42.9,-1.5 85.5,-8.9 128.4,-8.7c42.8,0.2 85.8,7.8 128.6,9c42.9,1.2 85.5,-4.2 128.4,-7.5c42.8,-3.3 85.8,-4.7 128.6,0.2c42.9,4.8 85.5,15.8 128.4,14.3c42.8,-1.5 85.8,-15.5 107.3,-22.5l21.5,-7l0,73l-21.5,0c-21.5,0 -64.5,0 -107.3,0c-42.9,0 -85.5,0 -128.4,0c-42.8,0 -85.8,0 -128.6,0c-42.9,0 -85.5,0 -128.4,0c-42.8,0 -85.8,0 -128.6,0c-42.9,0 -85.5,0 -128.4,0c-42.8,0 -85.8,0 -107.3,0l-21.5,0l0,-58z"/>
	   </g>
	</svg>
